<svg width="512" height="512" viewBox="0 0 512 512" fill="none" xmlns="http://www.w3.org/2000/svg">
<g clip-path="url(#clip0_4_41)">
<path d="M511.978 0.0764308C512.303 32.7473 510.971 217.769 361.236 365.365C214.829 509.684 34.1296 512.172 0 511.994C0.0597268 490.284 0.127987 468.565 0.187714 446.856C28.2849 447.62 187.551 449.267 316.373 323.975C450.315 193.699 447.687 26.9993 446.808 0.0679321H511.978V0.0764308Z" fill="#007038"/>
<path d="M1.04094 2.18204C148.959 1.47734 296.868 0.764147 444.786 0.0594482C444.367 30.5143 439.077 189.19 308.958 315.654C184.035 437.058 32.5255 442.814 0.0596924 443.307C0.383924 296.262 0.716708 149.218 1.04094 2.18204Z" fill="#C71224"/>
<path d="M456.825 0.0764359C456.586 32.5605 451.961 184.767 329.863 310.254C197.952 445.82 29.2064 447.119 0.187726 446.864C0.136531 425.035 0.0853256 403.198 0.0426636 381.37C27.261 381.633 167.056 380.24 281.8 269.594C393.25 162.123 401.586 28.2219 402.712 0C420.75 0.025471 438.787 0.0509473 456.825 0.0849087V0.0764359Z" fill="white"/>
<path d="M422.926 374.985L367.491 430.138L422.926 485.3L478.361 430.138L422.926 374.985Z" fill="black"/>
<path d="M197.943 57.8775L174.91 80.7892L197.935 103.709L220.969 80.7972L197.943 57.8775Z" fill="black"/>
<path d="M75.6423 57.8706L52.6091 80.7823L75.6342 103.702L98.6674 80.7903L75.6423 57.8706Z" fill="black"/>
<path d="M88.0363 273.165L65.0031 296.077L88.0283 318.997L111.061 296.085L88.0363 273.165Z" fill="black"/>
<path d="M311.748 67.2102L288.714 90.1218L311.74 113.042L334.773 90.1298L311.748 67.2102Z" fill="black"/>
<path d="M88.0406 172.254L65.0074 195.166L88.0325 218.085L111.066 195.174L88.0406 172.254Z" fill="black"/>
<path d="M225.648 194.606L202.614 217.517L225.64 240.437L248.673 217.525L225.648 194.606Z" fill="black"/>
</g>
<defs>
<clipPath id="clip0_4_41">
<rect width="512" height="512" fill="white"/>
</clipPath>
</defs>
</svg>
