<svg width="663" height="293" viewBox="0 0 663 293" fill="none" xmlns="http://www.w3.org/2000/svg">
<path d="M662.56 60.59C662.65 73.77 661.89 147.52 602.39 206.43C544 264.25 471.97 265.25 458.37 265.18C458.35 258.19 458.33 251.2 458.32 244.22C476.03 242.95 528.69 236.85 575.79 195.47C634.4 143.98 641.54 75.54 642.73 60.78C649.34 60.72 655.95 60.66 662.56 60.6V60.59Z" fill="#007038"/>
<path d="M458.75 61.95C517.72 61.63 576.7 61.31 635.67 60.98C635.51 73.17 633.44 136.83 581.51 187.55C531.71 236.19 471.3 238.5 458.35 238.7C458.48 179.78 458.61 120.87 458.74 61.95H458.75Z" fill="#C71224"/>
<path d="M38.5299 245.66L16.4299 267.76L38.5299 289.86L60.6299 267.76L38.5299 245.66ZM82.7299 246.01L60.6299 268.11L82.7299 290.21L104.83 268.11L82.7299 246.01Z" fill="black"/>
<path d="M121.37 202.99C121.27 203.09 121.18 203.19 121.07 203.29C121.16 203.19 121.25 203.09 121.36 202.98L121.37 202.99Z" fill="black"/>
<path d="M154.41 181.7C141.33 195.29 128.26 208.89 115.19 222.48C150.41 222.73 185.41 222.69 220.68 222.36C221.45 222.62 222.04 222.7 222.58 222.72H222.6C222.83 222.72 223.04 222.72 223.25 222.72L264.2 181.77L264.28 181.69H154.4L154.41 181.7ZM154.41 181.7C141.33 195.29 128.26 208.89 115.19 222.48C150.41 222.73 185.41 222.69 220.68 222.36C221.45 222.62 222.04 222.7 222.58 222.72H222.6C222.83 222.72 223.04 222.72 223.25 222.72L264.2 181.77L264.28 181.69H154.4L154.41 181.7Z" fill="black"/>
<path d="M433.25 182.13V182.02C433.23 156.17 433.21 130.32 433.2 104.46C433.2 84.92 433.19 65.37 433.19 45.82H392.3C392.3 51.73 392.3 57.65 392.3 63.56C392.29 88.05 392.3 112.53 392.3 137C392.3 141.77 392.3 146.55 392.31 151.31C392.31 161.58 392.32 171.85 392.33 182.12C392.33 182.16 392.33 182.2 392.33 182.24C392.34 196.02 392.36 209.8 392.37 223.58H433.28C433.28 209.76 433.26 195.95 433.25 182.13ZM407.24 26.31L381.14 52.44L392.3 63.57L392.43 63.7C392.37 88.14 392.32 112.58 392.31 137.01C392.31 141.78 392.31 146.55 392.31 151.32H433.2C433.2 135.7 433.2 120.08 433.21 104.47C433.23 69.72 433.28 34.97 433.35 0.209991L407.25 26.31H407.24Z" fill="black"/>
<path d="M143.227 289.06V280.333H146.278C146.886 280.333 147.387 280.438 147.782 280.648C148.177 280.855 148.471 281.135 148.664 281.488C148.857 281.837 148.954 282.225 148.954 282.651C148.954 283.026 148.887 283.336 148.754 283.58C148.623 283.824 148.45 284.017 148.234 284.159C148.021 284.301 147.789 284.407 147.539 284.475V284.56C147.806 284.577 148.075 284.671 148.345 284.841C148.615 285.012 148.84 285.256 149.022 285.574C149.204 285.892 149.295 286.282 149.295 286.742C149.295 287.179 149.195 287.573 148.997 287.922C148.798 288.272 148.484 288.549 148.055 288.753C147.626 288.958 147.068 289.06 146.38 289.06H143.227ZM144.284 288.122H146.38C147.07 288.122 147.561 287.989 147.85 287.722C148.143 287.452 148.289 287.125 148.289 286.742C148.289 286.446 148.214 286.174 148.063 285.924C147.913 285.671 147.698 285.469 147.42 285.319C147.142 285.165 146.812 285.088 146.431 285.088H144.284V288.122ZM144.284 284.168H146.244C146.562 284.168 146.849 284.105 147.105 283.98C147.363 283.855 147.568 283.679 147.718 283.452C147.872 283.225 147.948 282.958 147.948 282.651C147.948 282.267 147.815 281.942 147.548 281.675C147.281 281.405 146.857 281.27 146.278 281.27H144.284V284.168ZM152.088 280.333V289.06H151.031V280.333H152.088ZM154.207 289.06V280.333H155.264V288.122H159.321V289.06H154.207ZM161.866 289.06H160.758L163.963 280.333H165.053L168.258 289.06H167.15L164.542 281.713H164.474L161.866 289.06ZM162.275 285.651H166.741V286.588H162.275V285.651ZM172.311 289.06H169.617V280.333H172.43C173.276 280.333 174.001 280.507 174.603 280.857C175.205 281.203 175.667 281.702 175.988 282.353C176.309 283 176.47 283.776 176.47 284.679C176.47 285.588 176.308 286.371 175.984 287.027C175.66 287.681 175.188 288.184 174.569 288.536C173.95 288.885 173.197 289.06 172.311 289.06ZM170.674 288.122H172.242C172.964 288.122 173.562 287.983 174.036 287.705C174.511 287.426 174.865 287.03 175.097 286.516C175.33 286.002 175.447 285.39 175.447 284.679C175.447 283.975 175.332 283.368 175.102 282.86C174.872 282.348 174.528 281.956 174.07 281.684C173.613 281.408 173.044 281.27 172.362 281.27H170.674V288.122ZM179.299 280.333V289.06H178.242V280.333H179.299Z" fill="black"/>
<path d="M373.35 182.27C373.35 196.04 373.35 209.81 373.37 223.58H331.74C331.74 209.83 331.72 196.08 331.72 182.33V182.25C331.72 143.03 331.75 103.82 331.85 64.58L320.38 53.11L346.92 26.54L373.49 0C373.36 60.74 373.33 121.46 373.35 182.17V182.27Z" fill="black"/>
<path d="M264.35 59.9C264.26 100.51 264.22 141.11 264.21 181.7V181.78L223.26 222.73C223.05 222.73 222.84 222.73 222.61 222.73H222.59C222.59 209.06 222.59 195.38 222.61 181.71C222.63 162.64 222.66 143.57 222.71 124.49L211.24 113.02L237.78 86.45L264.35 59.91V59.9Z" fill="black"/>
<path d="M433.32 223.58H235.82L277.54 182.33C292.77 182.33 308.03 182.33 323.26 182.28C326.08 182.28 328.9 182.28 331.72 182.26H331.74C345.59 182.26 359.48 182.24 373.35 182.18H373.38C376.26 182.18 379.14 182.16 382.02 182.16C385.45 182.16 388.91 182.14 392.34 182.14H392.4C406.02 182.09 419.62 182.06 433.25 182.04H433.31V182.15C433.31 195.96 433.33 209.78 433.31 223.6L433.32 223.58Z" fill="black"/>
<path d="M149.81 173.15C134.89 187.97 119.97 202.78 105.05 217.6C102.7 219.3 75.21 238.49 42.19 226.74C10.74 215.54 1 185.77 0 182.52C0 156.39 0 130.27 0 104.14C1.44 102.29 2.88001 100.43 4.32001 98.58V163.92C5.09001 165.5 19.45 193.59 47.67 195.33C59.81 196.08 69.38 191.64 74.28 188.86C83.01 180.16 91.74 171.46 100.47 162.75C79.88 155.48 65.33 137.48 63.53 117.04C61.33 92.08 78.5 67.61 104.97 60.26C133.86 60.32 162.76 60.39 191.65 60.45C179.62 71.95 167.6 83.46 155.57 94.96L124.04 95.58C113.91 95.82 105.62 103.62 104.77 113.29C103.98 122.26 109.77 130.85 118.71 133.61C128.93 133.68 139.15 133.76 149.37 133.83C149.51 146.94 149.66 160.04 149.8 173.15H149.81Z" fill="black"/>
<path d="M644.27 60.75C643.14 75.82 636.75 138.41 583.98 189.18C533.47 237.77 474.03 243.26 458.31 244.22C458.34 237.35 458.37 230.48 458.39 223.6C472.99 222.4 524.89 216.35 569.25 173.4C615.05 129.06 621.97 75.26 623.35 61.05C630.32 60.95 637.29 60.85 644.26 60.76L644.27 60.75Z" fill="white"/>
<path d="M458.4 223.62H398.03C411.88 237.47 425.74 251.33 439.59 265.18H458.46C458.44 251.33 458.42 237.47 458.4 223.62Z" fill="black"/>
<path d="M626.976 211.409L604.868 233.509L626.968 255.617L649.076 233.517L626.976 211.409Z" fill="black"/>
<path d="M537.856 89.9749L528.669 99.1586L537.853 108.345L547.04 99.1618L537.856 89.9749Z" fill="black"/>
<path d="M492.167 86.9299L482.98 96.1136L492.164 105.3L501.35 96.1168L492.167 86.9299Z" fill="black"/>
<path d="M497.695 175.979L488.508 185.163L497.691 194.35L506.878 185.166L497.695 175.979Z" fill="black"/>
<path d="M586.039 93.506L576.853 102.69L586.036 111.877L595.223 102.693L586.039 93.506Z" fill="black"/>
<path d="M497.697 127.1L488.51 136.283L497.694 145.47L506.881 136.287L497.697 127.1Z" fill="black"/>
<path d="M547.045 140.734L537.858 149.917L547.042 159.104L556.229 149.921L547.045 140.734Z" fill="black"/>
</svg>
