<svg width="70" height="70" viewBox="0 0 70 70" fill="none" xmlns="http://www.w3.org/2000/svg">
    <path opacity="0.2" d="M50.19 0H19.845C7.98 0 0 8.33 0 20.72V49.315C0 61.67 7.98 70 19.845 70H50.19C62.055 70 70 61.67 70 49.315V20.72C70 8.33 62.055 0 50.19 0Z" fill="#D73E3E"/>
    <path d="M45.5549 41.1968L39.3284 34.9738L45.5514 28.7508C46.7484 27.5573 46.7484 25.6148 45.5514 24.4213C44.3544 23.2173 42.4189 23.2208 41.2219 24.4178L34.9954 30.6408L28.7689 24.4108C27.5719 23.2138 25.6329 23.2208 24.4359 24.4108C23.2424 25.6078 23.2424 27.5503 24.4359 28.7438L30.6659 34.9738L24.4499 41.1863C23.2529 42.3833 23.2529 44.3258 24.4499 45.5158C25.0484 46.1178 25.8289 46.4153 26.6129 46.4153C27.4004 46.4153 28.1809 46.1178 28.7794 45.5193L34.9954 39.3033L41.2254 45.5298C41.8239 46.1283 42.6044 46.4258 43.3884 46.4258C44.1724 46.4258 44.9564 46.1248 45.5549 45.5298C46.7519 44.3328 46.7519 42.3938 45.5549 41.1968Z" fill="#D73E3E"/>
</svg>
