<svg width="70" height="70" viewBox="0 0 70 70" fill="none" xmlns="http://www.w3.org/2000/svg">
    <path opacity="0.2" d="M50.19 0H19.845C7.98 0 0 8.33 0 20.72V49.315C0 61.67 7.98 70 19.845 70H50.19C62.055 70 70 61.67 70 49.315V20.72C70 8.33 62.055 0 50.19 0Z" fill="#63BE7B"/>
    <path d="M30.8458 46.3684C30.0618 46.3684 29.2778 46.0709 28.6793 45.4724L20.3738 37.1669C19.1768 35.9699 19.1768 34.0309 20.3738 32.8374C21.5708 31.6404 23.5063 31.6369 24.7033 32.8339L30.8458 38.9764L45.2938 24.5284C46.4908 23.3314 48.4263 23.3314 49.6233 24.5284C50.8203 25.7254 50.8203 27.6644 49.6233 28.8614L33.0123 45.4724C32.4138 46.0709 31.6298 46.3684 30.8458 46.3684Z" fill="#63BE7B"/>
</svg>
